<svg xmlns="http://www.w3.org/2000/svg" xmlns:xlink="http://www.w3.org/1999/xlink" width="1024" height="301" viewBox="0 0 1024 301"><path fill-rule="evenodd" clip-rule="evenodd" fill="#DC002E" d="M921.007 83.682c-46.143 4.858-85.84 31.283-85.84 82.12 0 50.834 39.697 68.917 85.84 64.082 46.18-4.858 86.717-31.295 85.863-82.13-.782-46.76-39.684-68.92-85.863-64.072m-28.51 76.098c0-19.516 5-43.393 28.51-45.87 23.534-2.477 28.522 20.358 28.522 39.875 0 19.516-4.99 43.394-28.523 45.87-23.51 2.465-28.51-20.358-28.51-39.875zm-65.056 41.274c-4.893.355-9.24.51-14.337.604-7.762.13-10.024-6.28-10.57-12.182-.38-3.934 0-63.75 0-63.75l27.823-.487c2.477-.048 4.49-2.18 4.49-4.575l.013-23.996c0-2.49-2.027-3.97-4.504-3.935h-27.822v-36.39c0-2.442-1.943-4.148-6.257-3.07l-44.556 8.508c-3.46.604-5.118 2.3-5.118 4.787l.06 27.136-23.545.403c-.403.01-4.497 2.084-4.497 4.526l-.012 24.067c0 2.488 2.044 4.455 4.51 4.408l23.544-.425s-.332 71.454.036 75.494c2.75 29.73 23.734 33.18 57.115 32.586 7.015-.118 13.936-.65 23.9-2.31 3.53-.558 5.345-2.5 5.345-4.978l-.023-22.953c0-1.966-1.257-3.84-5.594-3.47zm-176.41 21.388c0 2.5 2 4.633 4.49 4.8l46.87 3.293c2.466.166 4.48-1.694 4.48-4.183V97.416c0-2.477-2.015-4.67-4.48-4.834l-46.87-3.27c-2.49-.18-4.49 1.717-4.49 4.194v128.936zm-20.97-26.745c-4.887-.226-9.218-.9-14.313-1.35-15.244-1.353-11.044-38.537-11.044-38.537v-38.7l28.273 2.927c2.49.272 4.503-1.61 4.503-4.017l.012-23.972c0-2.5-2.026-4.716-4.516-4.977l-27.822-2.926.012-39.483c0-2.464-1.955-5.166-6.263-4.62l-44.556 9.242c-3.335.734-5.13 2.44-5.13 4.93l.07 24.066-22.775-2.583c-2.452-.26-4.49 1.493-4.49 3.958v24.08c0 2.476 2.038 4.704 4.49 4.964l22.775 2.572v61.807c-.313 41.865 19.997 49.366 57.928 53.36 7.026.722 13.153 1.137 23.125.698 3.53-.13 5.344-1.86 5.344-4.325l-.012-22.94c0-1.992-1.268-4.018-5.61-4.173zM417.04 116.505l51.748 3.26c0-7.42-2.352-14.99-6.754-21.034-4.42-6.054-10.885-10.036-19.404-10.012-19.416-.39-24.126 12.23-25.59 27.787zm104.012 25.63c.172 3.935-4.723 8.888-8.082 8.687l-97.108-6.352c-.29 17.846 4.71 34.317 25.578 35.62 13.74.877 22.923-4.656 26.317-14.563.854-2.737 2.27-4.194 4.758-4.04l41.51 2.737c2.625.166 4.36 4.728 3.377 8.603-3.715 14.362-12.412 22.42-24.79 28.392-12.94 6.872-29.416 8.887-46.752 7.772-60.02-3.815-82.623-28.818-82.623-82.948 0-43.69 34.134-65.103 78.582-63.42 57.22 2.157 77.852 32.42 79.233 79.512zm-249.43-54.26c-23.518.807-27.05 26.225-27.05 43.81s3.532 42.742 27.05 41.913c23.526-.806 27.058-26.224 27.058-43.797 0-17.596-3.532-42.753-27.06-41.924zM238.557 252.02l-46.9 1.646c-2.5.083-4.49-1.872-4.49-4.35V67.65c0-2.537 1.99-4.6 4.49-4.693l46.9-1.635c2.47-.083 4.474 1.837 4.474 4.384v6.08C257.714 60.088 271.85 56 291.545 55.337c43.81-1.422 62.916 32.705 62.916 68.99 0 40.395-21.755 75.778-69.09 77.425-16.464.58-29.706-2.038-41.75-10.262l-.588 55.873c0 2.476-2.004 4.573-4.474 4.656zM119.58 206.906c-2.476.154-4.455-1.742-4.455-4.22l-.035-14.99s-16.696 24.59-50.308 26.344C23.758 216.198.497 183.517.497 144.436c0-42.6 25.204-74.475 68.195-77.07 20.76-1.256 33.718 2.228 45.746 13.248l.687-5.475c.67-3.686 1.98-6.363 5.048-6.54l46.244-2.82c2.394-.143 4.42 1.74 4.42 4.29l-.035 129.244c0 2.477-1.99 4.62-4.48 4.775l-46.74 2.82zM85.668 95.875c-23.71 1.422-27.266 27.23-27.266 45.03 0 17.797 3.556 43.167 27.267 41.733 23.71-1.445 27.267-27.242 27.267-45.04 0-17.786-3.556-43.157-27.267-41.723z" /><defs><path id="a" d="M921.007 83.682c-46.143 4.847-85.84 31.283-85.84 82.12 0 50.834 39.697 68.917 85.84 64.07 46.167-4.847 86.184-30.632 85.863-82.12-.284-46.983-39.696-68.917-85.863-64.07m-28.51 76.087c0-19.505 5-43.395 28.51-45.86 23.522-2.476 28.522 20.36 28.522 39.864 0 19.527-5 43.405-28.523 45.87-23.51 2.476-28.51-20.347-28.51-39.875zm-65.08 41.284c-4.87.343-9.218.51-14.313.592-7.762.13-10.024-6.27-10.57-12.17-.38-3.934 0-63.763 0-63.763l27.823-.486c2.477-.036 4.49-2.168 4.49-4.563l.013-23.996c0-2.488-2.026-3.98-4.503-3.934h-27.822v-36.39c0-2.44-1.943-4.147-6.257-3.08l-44.556 8.52c-3.46.59-5.12 2.298-5.12 4.786l.06 27.136-23.544.403c-2.465.046-4.497 2.05-4.497 4.526l-.01 24.067c0 2.464 2.043 4.443 4.508 4.408l23.557-.13s-.344 71.147.024 75.2c2.748 29.72 23.733 33.167 57.114 32.586 7.015-.118 13.936-.65 23.9-2.31 3.53-.558 5.345-2.513 5.345-4.99l-.024-22.94c0-1.967-1.258-3.84-5.618-3.472zM651.03 222.442c0 2.488 2 4.62 4.49 4.8l46.87 3.28c2.466.18 4.48-1.682 4.48-4.182V97.404c0-2.465-2.015-4.657-4.48-4.823l-46.87-3.27c-2.49-.178-4.503 1.718-4.503 4.183l.012 128.95zm-20.97-26.745c-4.887-.25-9.206-1.043-14.313-1.35-12.85-.783-11.044-26.947-11.044-26.947v-50.314l28.273 2.95c2.49.262 4.503-1.61 4.503-4.016l.012-23.972c0-2.5-2.026-4.716-4.516-4.99l-27.822-2.926V44.65c0-2.454-1.943-5.156-6.25-4.61l-44.557 9.242c-3.4.675-5.13 2.44-5.13 4.93l.07 24.054-22.775-2.572c-2.452-.272-4.49 1.493-4.49 3.958l-.013 24.067c0 2.476 2.05 4.703 4.502 4.976l22.775 2.56v61.81c-.545 41.07 19.22 49.377 57.15 53.358 7.028.734 13.93 1.15 23.902.7 3.53-.12 5.343-1.85 5.343-4.314l-.012-22.94c.002-1.992-1.26-4.018-5.61-4.173zM417.04 116.505l51.748 3.26c0-7.43-2.352-14.99-6.754-21.046-4.42-6.044-10.885-10.026-19.404-10.014-19.416-.38-24.126 12.24-25.59 27.8zm103.987 25.027c.07 5.38-4.923 9.42-8.058 9.29l-97.108-6.352c-.29 17.834 4.71 34.317 25.577 35.62 13.74.865 22.923-4.67 26.317-14.575.854-2.737 2.27-4.183 4.758-4.028l41.51 2.737c2.625.153 5.67 4.81 4.408 8.59-4.83 14.375-13.443 22.42-25.82 28.404-12.94 6.873-29.405 11.187-46.753 10.097-59.106-3.697-82.623-31.142-82.623-85.27 0-43.69 34.98-66.23 79.394-63.433 57.49 3.603 76.846 31.106 78.397 78.92zM271.62 87.865c-23.518.817-27.05 26.235-27.05 43.81 0 17.596 3.532 42.752 27.05 41.923 23.526-.817 27.058-26.224 27.058-43.797 0-17.596-3.532-42.753-27.06-41.935zM238.557 252.02l-46.9 1.646c-2.5.083-4.49-1.872-4.49-4.36V67.65c0-2.537 1.99-4.6 4.49-4.693l46.9-1.635c2.47-.083 4.474 1.837 4.474 4.373v6.09c14.682-11.695 28.818-15.783 48.513-16.446 43.81-1.423 62.916 32.704 62.916 68.988 0 40.384-21.755 75.78-69.09 77.426-16.464.58-29.706-2.038-41.75-10.262l-.588 55.872c0 2.475-2.004 4.572-4.474 4.655zM119.58 206.906c-2.476.142-4.455-1.742-4.455-4.23l-.035-14.99s-16.696 24.6-50.308 26.354C23.645 216.198.497 183.517.497 144.436c0-42.61 25.204-74.475 68.195-77.07 20.76-1.256 33.718 2.216 45.746 13.236l.687-5.46c.67-3.698 1.98-6.364 5.048-6.554l46.244-2.808c2.394-.142 4.42 1.742 4.42 4.278l-.035 129.257c0 2.477-1.99 4.61-4.48 4.775l-46.74 2.82zM85.668 95.875c-23.71 1.422-27.266 27.22-27.266 45.03 0 17.797 3.556 43.167 27.267 41.733 23.71-1.445 27.267-27.242 27.267-45.04s-3.556-43.168-27.267-41.723z" /></defs><clipPath id="b"><use xlink:href="#a" overflow="visible" /></clipPath><g clip-path="url(#b)" fill-rule="evenodd" clip-rule="evenodd"><path fill="#EB6A39" d="M16.6 193.85C1.855 181.17-3.88 167.447-3.88 144.743c0-42.588 28.936-78.362 71.926-80.97 20.75-1.244 33.02 1.92 45.36 12.775l1.067-4.79s.568-6.587 5.06-6.765l46.244-2.808c2.388-.143 5.48 5.226 5.303 7.738l.462 2.002-46.262 2.737c-3.068.19-4.378 3.33-5.202 6.86l-.912 4.682C106.813 75.352 91.71 71.786 70.95 73.04 27.96 75.65 4.886 107.537 4.886 150.125c0 19.516 1.748 30.678 11.714 43.725" /><path fill="#A60B16" d="M85.667 95.91C61.957 97.334 58.4 123.13 58.4 140.94c0 10.56 2.33 25.406 8.278 34.115-10.386-7.88-14.237-26.662-14.237-40.063 0-17.798 3-43.347 26.722-44.78 9.646-.58 17.8 3.85 21.893 9.847-3.645-2.395-9.54-4.505-15.388-4.15M164.853 193.79l.023-121.46 5.558-7.003c.51.853 1.227 4.088 1.19 5.167l.12 129.245c0 2.487-2.922 5.153-5.422 5.296l-46.73 2.832c-2.476.142-4.722-2.264-4.722-4.752l-.012-2.157c.367.45 1.263.663 2.33.603l43.173-2.998c2.502-.154 4.493-2.3 4.493-4.776M114.373 194.975c-9.172 10.428-26.573 20.57-49.59 22.028-21.432 1.375-41.126-8.532-48.977-24.15 10.635 9.09 26.13 16.176 43.963 15.038 23.017-1.457 38.67-9.194 48.417-18.864 2.95-2.938 6.974-7.157 6.974-7.157l-.07 12.845-.717.26M271.63 90.128c-23.527.83-25.684 24.813-25.684 42.41 0 10.5 3.65 26.034 7.317 34.293-11.6-8.72-14.83-27.135-14.83-40.454 0-17.597 3.288-42.695 26.815-43.5 9.48-.332 16.685 4.17 21.916 10.546-3.577-2.38-9.828-3.484-15.533-3.294" /><path fill="#A60B16" d="M238.558 254.26l-46.9 1.634c-2.536.19-3.87-4.325-3.87-4.325l5.144-4.124 39.667-1.387c2.487-.096 4.49-2.182 4.49-4.67l.58-55.86c12.04 8.213 25.287 10.83 41.753 10.263 47.34-1.647 69.096-37.042 69.096-77.438 0-18.853-5.174-37.125-16.288-50.136 15.238 12.986 22.24 34.138 22.24 56.096 0 40.396-21.755 75.78-69.1 77.426-16.466.58-29.708-2.038-41.753-10.25l-.588 55.86c0 2.475-2.004 6.824-4.474 6.907" /><path fill="#EB6A39" d="M192.93 247.445l-5.142 4.123-2.838-2.24-.02-181.667c0-2.547 4.237-6.848 6.738-6.93l46.89-1.636c2.48-.083 4.473 4.064 4.473 6.612v1.434l-45.608 1.588c-2.5.083-4.49 2.145-4.49 4.68v174.037" /><path fill="#A60B16" d="M237.1 81.24l.144-13.9 5.51-5.33c.367 1.54.172 2.203.278 3.696l-.012 6.08c-.883 1.148-1.588 2.345-2.56 3.803-1.445 2.18-3.36 5.65-3.36 5.65" /><path fill="#EB6A39" d="M384.653 188.79c-16.033-14.553-22.793-32.374-22.793-62.366 0-43.69 36.965-68.657 81.35-65.86 27.37 1.706 44.838 8.507 56.972 22.762-12.258-10.12-28.362-15.05-51.79-16.625-47.35-3.187-80.885 20.205-80.885 63.895 0 26.247 4.816 44.093 17.146 58.194" /><path fill="#A60B16" d="M455.657 92.616c-3.603-2.38-7.98-3.65-13.03-3.638-17.193-.355-22.845 9.527-24.937 22.62l-.52 4.92-6.358-.428.427-6.316c1.622-14.92 7.813-26.224 26.63-25.833 8.218-.01 13.503 2.75 17.787 8.676M521.05 142.136c.278 4.49-4.55 9.16-8.082 8.947l-96.48-5.925c1.037 9.895 5.765 22.503 9.587 28.9-10.008-4.846-16.364-21.92-16.163-34.932l97.114 6.363c3.543.354 9-2.37 8.662-6.554-.812-25.003-2.583-41.996-16.198-56.63 17.134 15.05 20.635 31.45 21.56 59.83M514 163.845l.312.143c2.613.178 5.392 5.226 4.396 9.09-3.715 14.373-13.432 22.43-25.82 28.39-12.935 6.897-29.405 11.21-46.753 10.11-30.508-1.91-49.206-9.445-62.42-23.83 13.273 10.794 30.698 17.323 56.97 18.97 17.353 1.09 34.037-3.78 46.972-10.652 12.39-5.984 22.426-16.27 26.122-30.655.1-.38.17-1.21.22-1.565M599.228 89.002l-.012-49.342c4.106-.415 6.287 2.855 6.287 5.25v44.448l-6.275-.356" /><path fill="#EB6A39" d="M598.914 39.956c1.932-.25 5.326.71 5.616 2.157l-5.314 4.882-39.104 7.963c-3.437.664-5.125 1.67-5.125 4.16l.064 25.085-22.78-2.583c-2.446-.25-4.484 1.493-4.484 3.97l-.012 22.668-4.248-.854c-.925-.912-1.505-2.18-1.505-3.507V79.83c0-2.476 2.04-4.668 4.504-4.42l22.473 2.584-.077-23.616c0-2.477 1.908-4.48 5.427-5.178l44.567-9.244" /><path fill="#A60B16" d="M631.542 86.502l1.434.142c2.49.272 8.544-.32 8.544 2.168l2.5 94.288s-33.932 4.692-31.384 10.522c-14.52-2.002-13.503-21.897-13.503-21.897l-.06-60.304 27.942 2.928c2.5.26 4.515-1.61 4.515-4.017l.012-23.828M630.06 192.213c4.362.154 5.612 2.18 5.612 4.172l.012 26.674c0 2.476-1.813 4.193-5.344 4.336-9.972.414-16.862.023-23.9-.724-23.422-2.464-41.244-6.61-47.76-17.537 10.106 7.75 24.87 10.748 41.312 12.288 10.084.937 14.457 1.268 24.393.438 5.243-.45 5.35-2.286 5.35-4.763l-.01-24.908.336.023M526.524 108.945c-1.12-.12-2.477-.84-3.277-1.624l4.527-3.637 27.277 3.02-5.752 4.978-22.774-2.735" /><path fill="#EB6A39" d="M559.686 211.244c-9.817-7.607-11.844-17.277-10.387-37.99v-61.986l5.752-4.574v72.32c.35 9.692.28 16.506 1.03 22.063.522 3.816 1.198 7.038 3.604 10.167M605.384 83.966l27.604 2.938c2.49.25 3.164 1.612 3.164 1.612l-4.61 3.732L599.135 89l6.25-5.034" /><path fill="#A60B16" d="M700.93 220.677l.046-122.598 4.62-4.338c.85.877 1.75 2.702 1.75 3.958l-.013 128.937c0 2.488-2.465 4.692-4.924 4.526l-46.866-3.282c-2.5-.188-4.503-2.653-4.503-5.153v-1.043l45.41 3.188c2.476.165 4.48-1.695 4.48-4.195M796.585 97.51v-37.6l6.518-10.047-.57 47.482-5.948.165M746.662 127.336l-24.66.036c-2.476.036-4.514-1.943-4.514-4.42v-1.422l34.933-.272-.864 5.83-4.894.248M828.78 92.024l1.435-.024c2.488-.047 6.398 1.8 6.398 4.29l1.825 24.707c0 2.405-3.437 6.043-5.925 6.09l-22.254 2.81-5.76 50.716c0 2.133 1.208 14.326 3.317 19.777-13.01-1.375-11.388-25.868-11.388-25.868l.01-54.674 27.825-.486c2.488-.047 4.502-2.168 4.502-4.574l.013-22.764M827.11 198.85c4.36-.368 6.398 1.505 6.398 3.483l.023 25.773c0 2.477-2.605 4.432-6.137 4.988-9.978 1.66-16.874 2.192-23.9 2.322-24.458.415-39.52.818-48.585-11.838 10.014 7.23 20.015 7.323 41.154 6.482 8.65-.344 11.826-.486 25.56-2.714 3.532-.568 5.155-2.726 5.155-5.202l-.012-23.272.345-.022" /><path fill="#EB6A39" d="M830.356 92.06c1.114-.024 3.697.57 4.48 1.232l-6.044 4.17-32.208.06 5.973-4.822 27.8-.64M756.106 224.8c-9.006-6.564-13.082-15.025-11.707-35.05l2.273-62.77 5.76-5.723-.31 71.63c.073 16.248-1.61 23.227 3.983 31.913M796.29 52.813c1.93-4.55 7.145-1.694 7.31-.806l-6.99 7.904-39.116 7.81c-3.473.604-5.13 2.287-5.13 4.775l.07 27.16-23.534.403c-2.488.036-4.503 2.038-4.503 4.515l-.023 16.91-5.065 4.053s-.677-.178-.677-2.654V98.814c0-2.477 2.044-5.083 4.497-5.12l23.284-.402-.07-26.543c0-2.49 1.93-4.824 5.39-5.428l44.555-8.51M919.608 78.68c29.47-3.103 62.567 3.816 67.994 22.397-15.96-13.698-34.933-17.313-65.398-14.006-46.154 5.025-82.83 33.382-82.83 84.217 0 18.39 4.563 29.54 12.265 40.052-12.253-10.523-19.647-22.966-19.647-45.054 0-50.847 41.45-82.758 87.615-87.605" /><path fill="#A60B16" d="M986.607 100.733c12.323 10.522 23.25 26.27 23.25 48.43 0 50.836-43.418 81.443-89.585 86.302-29.518 3.093-53.56-6.435-69.084-24.67 15.95 13.638 37.848 16.126 63.894 13.39 46.155-4.848 85.84-31.296 85.84-82.12 0-18.32-5.57-31.058-14.315-41.332" /><path fill="#A60B16" d="M895.897 160.35c0 10.878 5.866 25.12 6.518 33.665-11.6-7.288-15.867-25.833-15.867-39.934 0-19.516 5-43.393 28.522-45.87 10.416-1.09 20.536 5.25 24.85 11.6-3.958-2.594-12.3-4.29-18.83-3.59-23.522 2.478-25.193 24.613-25.193 44.13" /><path fill="#EB6A39" d="M656.794 99.442V222.1l-4.988 3.388c-.688-.912-1.03-1.48-1.03-2.88l.254-128.937c0-2.463 2.015-4.905 4.515-4.727l46.865 3.27c1.333.096 2.46 1.056 3.29 2.05l-4.724 3.793-39.68-2.81c-2.5-.177-4.502 1.73-4.502 4.196" /></g><path fill-rule="evenodd" clip-rule="evenodd" fill="#86B918" d="M662.097 65.824c-10.7-7.157-24.5-17.384-26.49-37.268-1.055-10.582 7.306-21.258 17.805-23.427 7.56-1.565 15.553 3.47 19.498 9.052 1.938-6.47 7.62-11.73 14.57-13.177 9.988-2.074 19.148 1.967 24.055 10.973 3.02 5.546 6.126 17.123-4.04 28.7-2.756 3.152-9.167 10.973-11.425 14.113-2.57 3.58-5.213 8.308-9.51 18.593-1.154 2.785-2.27 2.726-3.323 2.44-.078-.01-10.44-2.842-21.14-10" /><g><defs><path id="c" d="M298.743 212.263c17.193.415 34.713 2.643 41.705 3.152 28.83 3.033 61.228 9.622 94.768 14.48 45.462 6.576 322.905 56.69 434.624 40.93 81.147-11.46 121.732-35.834 146.226-80.52 4.705-8.923 6.66-13.13 8.366-19.493.568 3.235-2.678 13.983-5.522 22.515-17.514 52.554-66.666 93.886-157.482 103.863-99.502 10.913-213.745-1.576-332.018-17.62-59.528-8.07-114.86-17.574-164.83-24.79-23.077-3.342-45.064-6.186-65.837-8.212v-34.305" /></defs><clipPath id="d"><use xlink:href="#c" overflow="visible" /></clipPath><linearGradient id="e" gradientUnits="userSpaceOnUse" x1="212.915" y1="451.023" x2="225.057" y2="451.023" gradientTransform="matrix(59.81 0 0 -59.81 -12435.918 27215.617)"><stop offset="0" stop-color="#FFF" /><stop offset=".011" stop-color="#FFF" /><stop offset=".262" stop-color="#9EC448" /><stop offset=".6" stop-color="#009B32" /><stop offset=".896" stop-color="#009B32" /><stop offset="1" stop-color="#009B32" /></linearGradient><path clip-path="url(#d)" fill="url(#e)" d="M298.743 170.813H1025v137.29H298.743z" /></g><path fill-rule="evenodd" clip-rule="evenodd" fill="#EB6A39" d="M243.03 71.785c-2.896 4.147-5.918 9.456-5.918 9.456s11.73-13.413 39.993-20.523c32.906-8.27 55.96 8.508 55.96 8.508s-4.242-5.842-17.164-10.5c-17.69-6.386-44.56-4.194-63.212 6.2-4.182 2.333-8.49 5.2-9.657 6.86" /></svg>